<?xml version="1.0" encoding="utf-8"?>
<!-- Generator: Adobe Illustrator 26.4.1, SVG Export Plug-In . SVG Version: 6.00 Build 0)  -->
<svg version="1.1" id="Warstwa_1" xmlns="http://www.w3.org/2000/svg" xmlns:xlink="http://www.w3.org/1999/xlink" x="0px" y="0px"
	 viewBox="0 0 150 150" style="enable-background:new 0 0 150 150;" xml:space="preserve">
<style type="text/css">
	.st0{fill:none;stroke:#de471e;stroke-width:1.75;stroke-linejoin:bevel;}
</style>
<g>
	<polygon class="st0" points="18.5,80.3 22.4,80.3 26.3,88.1 41.9,88.1 45.8,80.3 49.7,80.3 53.6,88.1 69.2,88.1 73.1,80.3 77,80.3 
		80.9,88.1 96.4,88.1 100.3,80.3 104.2,80.3 108.1,88.1 123.7,88.1 127.6,80.3 131.5,80.3 112,46.6 109.5,46.6 106.9,51.7 
		96.7,51.7 94.2,46.6 91.6,46.6 89.1,51.7 78.8,51.7 76.3,46.6 73.7,46.6 71.2,51.7 61,51.7 58.4,46.6 55.8,46.6 53.3,51.7 
		43.1,51.7 40.5,46.6 38,46.6 	"/>
	<line class="st0" x1="123.7" y1="88.1" x2="106.9" y2="51.7"/>
	<line class="st0" x1="80.9" y1="88.1" x2="78.8" y2="51.7"/>
	<line class="st0" x1="69.2" y1="88.1" x2="71.5" y2="51"/>
	<line class="st0" x1="53.6" y1="88.1" x2="61" y2="51.7"/>
	<line class="st0" x1="43.1" y1="51.7" x2="26.3" y2="88.1"/>
	<polyline class="st0" points="131.5,80.3 131.5,103.4 18.5,103.4 18.5,80.3 	"/>
	<line class="st0" x1="89.1" y1="51.7" x2="96.4" y2="88.1"/>
	<line class="st0" x1="58.4" y1="46.6" x2="49.7" y2="80.3"/>
	<line class="st0" x1="53.3" y1="51.7" x2="41.9" y2="88.1"/>
	<line class="st0" x1="100.3" y1="80.3" x2="91.6" y2="46.6"/>
	<line class="st0" x1="108.1" y1="88.1" x2="96.7" y2="51.7"/>
</g>
</svg>
